<svg xmlns="http://www.w3.org/2000/svg" xmlns:xlink="http://www.w3.org/1999/xlink" version="1.1" x="0px" y="0px" viewBox="0 0 100 125" enable-background="new 0 0 100 100" xml:space="preserve"><path d="M50,14.599c-20.054,0-36.31,16.256-36.31,36.312c0,20.055,16.256,36.311,36.31,36.311c20.055,0,36.311-16.256,36.311-36.311  C86.311,30.854,70.055,14.599,50,14.599z M49.392,32.842c0-0.829,0.671-1.5,1.5-1.5c0.828,0,1.5,0.671,1.5,1.5v13.783  c0,0.828-0.672,1.5-1.5,1.5c-0.829,0-1.5-0.672-1.5-1.5V32.842z M50.892,64.658c-7.559,0-13.708-6.149-13.708-13.709  c0-6.116,4.107-11.543,9.988-13.198l-0.031,3.163c-4.137,1.548-6.957,5.555-6.957,10.035c0,5.905,4.804,10.709,10.708,10.709  c5.905,0,10.709-4.804,10.709-10.709c0-4.478-2.817-8.483-6.952-10.033l-0.029-3.164c5.877,1.656,9.981,7.083,9.981,13.196  C64.601,58.509,58.451,64.658,50.892,64.658z"/></svg>